<svg width="16" height="16" fill="none" xmlns="http://www.w3.org/2000/svg"><g clip-path="url(#clip0_165_74)"><path d="M13.864 11.136c-.972-.827-1.959-1.327-2.92-.502l-.573.499c-.42.362-1.2 2.054-4.215-1.395-3.016-3.445-1.221-3.981-.801-4.34l.576-.5c.956-.827.595-1.868-.094-2.94l-.416-.65C4.73.238 3.976-.464 3.018.362L2.5.812C2.077 1.118.894 2.115.607 4.008c-.346 2.272.744 4.873 3.24 7.727 2.494 2.855 4.935 4.29 7.248 4.264 1.922-.02 3.083-1.045 3.446-1.418l.519-.45c.955-.826.362-1.666-.611-2.495l-.585-.5z" fill="#5D3F91"/></g><defs><clipPath id="clip0_165_74"><path fill="#fff" d="M0 0h16v16H0z"/></clipPath></defs></svg>