<svg width="36" height="36" fill="none" xmlns="http://www.w3.org/2000/svg"><path fill-rule="evenodd" clip-rule="evenodd" d="M0 18c0 9.941 8.059 18 18 18s18-8.059 18-18S27.941 0 18 0 0 8.059 0 18zm29.297-.689c-.003 5.9-4.802 10.701-10.704 10.703h-.004c-1.791 0-3.552-.45-5.115-1.302L7.8 28.2l1.518-5.546a10.684 10.684 0 01-1.428-5.351C7.892 11.4 12.694 6.6 18.593 6.6a10.634 10.634 0 017.572 3.14 10.639 10.639 0 013.132 7.571z" fill="#5D3F91"/><path fill-rule="evenodd" clip-rule="evenodd" d="M10.37 25.657l3.367-.883.325.193a8.883 8.883 0 004.528 1.24h.003c4.904 0 8.894-3.991 8.896-8.897a8.843 8.843 0 00-2.603-6.293 8.836 8.836 0 00-6.29-2.61c-4.906 0-8.897 3.991-8.9 8.896 0 1.681.47 3.318 1.36 4.735l.213.336-.9 3.283zm13.25-6.042c.186.09.312.152.365.241.067.112.067.647-.155 1.272-.223.625-1.292 1.195-1.806 1.272-.46.069-1.044.097-1.684-.106a15.368 15.368 0 01-1.525-.564c-2.507-1.082-4.201-3.512-4.522-3.972a3.408 3.408 0 00-.046-.066l-.003-.003c-.141-.189-1.09-1.454-1.09-2.764 0-1.231.606-1.877.884-2.174.02-.02.037-.04.053-.057a.982.982 0 01.713-.334c.178 0 .357.001.512.01h.06c.156-.001.35-.002.542.458l.296.717c.23.56.484 1.18.529 1.269.067.134.111.29.022.469a8.459 8.459 0 00-.038.076 1.519 1.519 0 01-.23.37l-.137.164c-.092.112-.184.224-.264.304-.134.134-.273.278-.117.546.156.268.693 1.144 1.488 1.853a6.908 6.908 0 001.974 1.248c.073.031.133.057.177.08.267.133.423.11.579-.068.156-.178.669-.78.847-1.048.178-.268.356-.224.601-.134.246.09 1.56.736 1.828.87l.146.071z" fill="#5D3F91"/></svg>