<?xml version="1.0" encoding="utf-8"?><svg viewBox="0 0 634 580" xmlns="http://www.w3.org/2000/svg" xmlns:xlink="http://www.w3.org/1999/xlink"><style>:root>svg{display:none}:root>svg:target{display:block}</style><svg fill="none" viewBox="0 0 24 24" id="burger" xmlns="http://www.w3.org/2000/svg"><path fill-rule="evenodd" clip-rule="evenodd" d="M3 6a1 1 0 0 1 1-1h16a1 1 0 1 1 0 2H4a1 1 0 0 1-1-1Zm0 6a1 1 0 0 1 1-1h16a1 1 0 1 1 0 2H4a1 1 0 0 1-1-1Zm1 5a1 1 0 1 0 0 2h16a1 1 0 1 0 0-2H4Z" fill="#5D3F91"/></svg><svg fill="currentColor" viewBox="0 0 24 24" id="close" xmlns="http://www.w3.org/2000/svg"><path d="M4.994 3.906c-.256 0-.523.086-.719.281a1.029 1.029 0 0 0 0 1.438l6.282 6.281-6.282 6.281a1.029 1.029 0 0 0 0 1.438c.39.39 1.047.39 1.438 0l6.281-6.28 6.281 6.28c.39.39 1.047.39 1.438 0 .39-.39.39-1.047 0-1.438l-6.281-6.28 6.28-6.282c.391-.39.391-1.047 0-1.438a1.013 1.013 0 0 0-.718-.28c-.256 0-.523.085-.719.28l-6.28 6.281-6.282-6.28a1.013 1.013 0 0 0-.719-.282Z"/></svg><svg fill="none" viewBox="0 0 634 580" id="main-screen" xmlns="http://www.w3.org/2000/svg"><path d="M508.639 558.684c-5.833-.727-9.223-10.269-7.876-16.902 1.348-6.633 5.819-11.723 10.23-16.204 4.412-4.482 9.135-9.052 11.356-15.344 4.101-11.634-1.318-26.399 4.797-36.772 6.765-11.47 24.028-10.877 28.484-23.787 2.132-6.158.074-13.548 2.443-19.588 8.631-22.021 36.938-18.92 41.113-38.181 3.642 8.918-.089 19.484-4.664 27.794-4.574 8.31-10.245 16.605-10.689 26.473-.636 14.067 9.668 27.823 5.597 41.09-3.228 10.521-14.42 15.967-16.7 26.814-1.57 7.465 1.628 15.003 3.035 22.512 1.406 7.508-.829 15.655-7.27 17.391l-59.841 4.689-.015.015Z" fill="#E7EEFD"/><path d="M590.037 413.081c-11.726 8.117-20.328 22.096-23.126 37.618-2.072 11.471-1.154 23.758-5.196 34.486-4.353 11.56-13.872 19.677-18.181 31.252-4.13 11.1-2.931 23.772-1.658 35.777" stroke="#fff" stroke-width="1.08" stroke-linecap="round" stroke-linejoin="round"/><path d="M98.382 553.639c-4.99-1.291-7.27-7.212-7.373-12.376-.103-5.164 1.17-10.432-.074-15.448-3.79-15.388-27.463-18.475-31.8-33.714-4.22-14.825 13.146-29.382 9.134-44.251-2.413-8.963-11.74-14.216-16.093-22.408-5.256-9.868-2.443-21.858-.607-32.898 1.836-11.041 1.777-24.188-6.914-31.192 13.636 3.487 24.947 14.869 28.381 28.55 1.97 7.821 1.954 17.021 8.024 22.319 4.309 3.769 10.6 4.392 15.279 7.686 6.188 4.348 8.424 12.436 9.416 19.944.992 7.509 1.273 15.433 5.078 21.977 7.891 13.519 26.871 15.344 38.404 25.925 11.696 10.728 13.191 30.806 3.227 43.152l-54.067 22.734h-.015Z" fill="#E7EEFD"/><path d="M62.347 394.191c-2.547 10.462 2.058 21.309 7.684 30.465 5.625 9.156 12.524 17.867 15.278 28.269 2.295 8.666 1.57 18.015 4.59 26.444 3.568 9.957 11.829 17.332 18.565 25.479 6.751 8.147 12.377 18.89 9.209 28.981" stroke="#fff" stroke-linecap="round" stroke-linejoin="round"/><path d="M123.254 566.119c5.508-2.033 6.781-10.862 4.072-16.071-2.71-5.209-8.113-8.369-13.34-11.041-5.226-2.671-10.763-5.312-14.242-10.046-6.425-8.725-4.293-22.407-12.406-29.574-8.972-7.925-25.598-3.191-32.645-12.881-3.36-4.63-2.931-11.307-6.5-15.774-13.028-16.294-39.795-6.737-47.908-21.829-1.658 8.355 4.19 16.279 10.393 22.096 6.189 5.832 13.443 11.367 15.96 19.514 3.583 11.619-3.509 25.642 3.242 35.748 5.345 7.998 17.351 9.808 21.852 18.326 3.094 5.862 1.584 12.955 1.806 19.573.222 6.618 4.116 12.881 10.719 12.762l59.012-10.788-.015-.015Z" fill="#DDD7E7"/><path d="M13.624 464.351c13.073 3.903 24.37 13.489 30.35 25.776 4.427 9.081 6.13 19.588 12.318 27.571 6.662 8.592 17.603 13.044 24.22 21.665 6.352 8.266 7.862 19.158 9.15 29.516" stroke="#fff" stroke-linecap="round" stroke-linejoin="round"/><path d="M513.836 545.818c-.4-3.68 3.124-6.737 6.692-8.146 3.568-1.41 7.565-1.929 10.733-4.066 9.712-6.544 5.671-23.164 15.146-30.035 9.208-6.678 23.88 1.172 33.177-5.387 5.597-3.947 6.825-11.545 11.385-16.59 5.493-6.084 14.568-7.316 22.726-8.963 8.157-1.647 17.292-5.09 19.897-12.732 1.126 10.031-3.834 20.552-12.45 26.414-4.93 3.354-11.341 5.728-13.443 11.159-1.496 3.873-.282 8.236-1.362 12.228-1.407 5.268-6.455 8.873-11.415 11.485-4.974 2.612-10.408 4.867-13.961 9.112-7.343 8.799-3.657 21.962-8.009 32.423-4.412 10.61-17.988 16.828-29.195 13.371l-29.951-30.273h.03Z" fill="#DDD7E7"/><path d="M615.353 480.273c-7.936 1.01-14.287 6.916-19.187 13.059-4.901 6.158-9.164 13.014-15.679 17.57-5.433 3.784-12.125 5.728-17.203 9.942-5.996 4.971-8.972 12.421-12.88 19.054-3.908 6.633-9.904 13.192-17.766 13.696" stroke="#fff" stroke-width=".73" stroke-linecap="round" stroke-linejoin="round"/><path d="M564.809 247.95v320.884H196.05V247.95c0-57.681 43.659-71.17 43.659-71.17C249.525 45.408 346.985 74.196 379.571 1.974c.296-.653.577-1.291.858-1.96.267.669.548 1.322.844 1.96 32.586 72.222 130.061 43.45 139.862 174.806 0 0 43.659 13.489 43.659 71.17h.015Z" fill="#5D3F91"/><path d="M408.218 175.578c6.825 14.202 21.319 23.995 38.093 23.995 23.333 0 42.253-18.949 42.253-42.351 0-14.557-7.328-27.408-18.491-35.021 2.68 5.535 4.175 11.753 4.175 18.342 0 23.386-18.921 42.366-42.268 42.366a42.028 42.028 0 0 1-23.747-7.316l-.015-.015ZM280.971 229.504l-4.693 1.336 4.693 1.335 1.332 4.719 1.333-4.719 4.708-1.335-4.708-1.336-1.333-4.704-1.332 4.704ZM504.036 415.248l-4.708 1.335 4.708 1.336 1.332 4.704 1.332-4.704 4.694-1.336-4.694-1.335-1.332-4.719-1.332 4.719ZM411.327 279.305l-1.865.534 1.865.534.533 1.87.533-1.87 1.866-.534-1.866-.534-.533-1.87-.533 1.87ZM379.897 456.961l-1.866.534 1.866.52.533 1.884.533-1.884 1.865-.52-1.865-.534-.533-1.87-.533 1.87ZM222.122 448.844l-1.866.519 1.866.534.532 1.87.533-1.87 1.866-.534-1.866-.519-.533-1.885-.532 1.885ZM522.171 242.682l-1.88.534 1.88.519.518 1.885.533-1.885 1.881-.519-1.881-.534-.533-1.87-.518 1.87ZM224.52 271.188l-1.866.534 1.866.535.533 1.869.533-1.869 1.865-.535-1.865-.534-.533-1.87-.533 1.87ZM360.843 201.443l-1.865.534 1.865.535.533 1.869.533-1.869 1.865-.535-1.865-.534-.533-1.87-.533 1.87ZM510.875 328.275l-1.88.534 1.88.534.519 1.87.532-1.87 1.881-.534-1.881-.534-.532-1.87-.519 1.87ZM281.77 114.425l-1.865.535 1.865.534.533 1.87.533-1.87 1.866-.534-1.866-.535-.533-1.869-.533 1.869ZM363.241 54.119l-1.865.534 1.865.52.533 1.884.533-1.884 1.866-.52-1.866-.534-.533-1.885-.533 1.885ZM497.758 512.371l-1.88.534 1.88.535.533 1.869.518-1.869 1.88-.535-1.88-.534-.518-1.87-.533 1.87ZM398.285 127.395l-4.708 1.336 4.708 1.335 1.332 4.704 1.332-4.704 4.694-1.335-4.694-1.336-1.332-4.719-1.332 4.719ZM412.926 365.877l-4.708 1.336 4.708 1.35 1.333 4.704 1.332-4.704 4.693-1.35-4.693-1.336-1.332-4.704-1.333 4.704Z" fill="#FFB641"/><path d="M564.809 247.95v320.884h-14.242V247.95c0-57.681-41.972-71.17-41.972-71.17C499.416 48.94 410.439 72.757 376.802 7.583a89.672 89.672 0 0 0 2.769-5.61A78.48 78.48 0 0 0 380.429 0c.282.668.563 1.32.859 1.974C413.874 74.196 511.349 45.408 521.15 176.78c0 0 43.659 13.489 43.659 71.17Z" fill="#223059" style="mix-blend-mode:multiply" opacity=".36"/><path d="M212.468 557.972v3.161H71.97v-3.161c0-7.301 5.123-14.409 14.553-20.152H197.9c9.431 5.743 14.568 12.836 14.568 20.152Z" fill="#766691"/><path d="M197.915 367.213H85.857v169.42h112.058v-169.42Z" fill="#A18AC8"/><path d="M106.407 370.389h-20.55v164.375h20.55V370.389Z" fill="#1F5277" style="mix-blend-mode:multiply" opacity=".36"/><path d="M168.542 488.717c-2.768 9.675-23.406 14.973-26.338 24.188-2.931-9.23-23.569-14.513-26.337-24.188-2.784-9.675 5.3-13.311 5.3-13.311v-46.952s-8.084-3.62-5.3-13.296c2.768-9.69 23.406-14.972 26.337-24.202 2.932 9.23 23.57 14.512 26.338 24.202 2.784 9.676-5.3 13.296-5.3 13.296v46.952s8.084 3.636 5.3 13.311Z" fill="#FFB641"/><path d="M160.252 197.214c0 10.165-8.232 18.416-18.373 18.416-10.142 0-18.373-8.251-18.373-18.416 0-10.165 8.231-18.415 18.373-18.415 10.141 0 18.373 8.25 18.373 18.415Z" stroke="#F48021" stroke-width="3.28" stroke-miterlimit="10"/><path d="M81.401 350.504s-23.214-13.34-15.22-48.955c7.27-32.527 57.296-51.596 72.397-80.488 1.406-2.686 5.211-2.686 6.617 0 15.087 28.892 65.127 47.961 72.396 80.488 7.995 35.615-15.219 48.955-15.219 48.955H81.402Z" fill="#A18AC8"/><path d="M195.635 512.905c-1.954-9.23-15.693-14.513-17.529-24.188-1.85-9.675 3.524-13.311 3.524-13.311v-46.952s-5.374-3.62-3.524-13.296c1.851-9.69 15.575-14.972 17.529-24.202v121.949ZM88.137 390.956c1.954 9.23 15.693 14.512 17.529 24.188 1.851 9.675-3.523 13.31-3.523 13.31v46.952s5.374 3.621 3.523 13.296c-1.85 9.69-15.575 14.973-17.529 24.203V390.956ZM202.46 350.504H81.297v19.87H202.46v-19.87Z" fill="#FFB641"/><path d="M100.144 350.504H81.297v19.87h18.847v-19.87Z" fill="#FFB641" style="mix-blend-mode:multiply" opacity=".36"/><path d="M202.46 534.764H81.297v6.113H202.46v-6.113Z" fill="#FFB641"/><path d="M108.894 534.764H81.297v6.113h27.597v-6.113Z" fill="#FFB641" style="mix-blend-mode:multiply" opacity=".36"/><path d="M217.088 558.833H66.685v10.002h150.403v-10.002Z" fill="#FFB641"/><path d="M98.545 558.833h-31.86v10.002h31.86v-10.002Z" fill="#FFB641" style="mix-blend-mode:multiply" opacity=".36"/><path d="M85.857 382.498a4.542 4.542 0 0 0 4.546-4.556 4.542 4.542 0 0 0-4.546-4.556v9.112ZM106.407 377.942a4.543 4.543 0 0 1-4.546 4.556 4.542 4.542 0 0 1-4.545-4.556 4.542 4.542 0 0 1 4.545-4.556 4.543 4.543 0 0 1 4.546 4.556ZM122.41 377.942a4.542 4.542 0 0 1-4.545 4.556 4.542 4.542 0 0 1-4.545-4.556 4.542 4.542 0 0 1 4.545-4.556 4.542 4.542 0 0 1 4.545 4.556ZM138.415 377.942a4.542 4.542 0 0 1-4.545 4.556 4.543 4.543 0 0 1-4.546-4.556 4.543 4.543 0 0 1 4.546-4.556 4.542 4.542 0 0 1 4.545 4.556ZM154.433 377.942a4.542 4.542 0 0 1-4.545 4.556 4.542 4.542 0 0 1-4.545-4.556 4.542 4.542 0 0 1 4.545-4.556 4.542 4.542 0 0 1 4.545 4.556ZM170.438 377.942a4.542 4.542 0 0 1-4.545 4.556 4.543 4.543 0 0 1-4.546-4.556 4.543 4.543 0 0 1 4.546-4.556 4.542 4.542 0 0 1 4.545 4.556ZM186.441 377.942a4.542 4.542 0 0 1-4.545 4.556 4.542 4.542 0 0 1-4.545-4.556 4.542 4.542 0 0 1 4.545-4.556 4.542 4.542 0 0 1 4.545 4.556ZM197.901 382.498a4.543 4.543 0 0 1-4.546-4.556 4.543 4.543 0 0 1 4.546-4.556v9.112ZM85.857 531.781a4.542 4.542 0 0 0 4.546-4.556 4.542 4.542 0 0 0-4.546-4.556v9.112ZM106.407 527.225a4.543 4.543 0 0 1-4.546 4.556 4.542 4.542 0 0 1-4.545-4.556 4.542 4.542 0 0 1 4.545-4.555 4.542 4.542 0 0 1 4.546 4.555ZM122.41 527.225a4.542 4.542 0 0 1-4.545 4.556 4.542 4.542 0 0 1-4.545-4.556 4.542 4.542 0 0 1 4.545-4.555 4.542 4.542 0 0 1 4.545 4.555ZM138.415 527.225a4.542 4.542 0 0 1-4.545 4.556 4.543 4.543 0 0 1-4.546-4.556 4.542 4.542 0 0 1 4.546-4.555 4.542 4.542 0 0 1 4.545 4.555ZM154.433 527.225a4.542 4.542 0 0 1-4.545 4.556 4.542 4.542 0 0 1-4.545-4.556 4.542 4.542 0 0 1 4.545-4.555 4.542 4.542 0 0 1 4.545 4.555ZM170.438 527.225a4.542 4.542 0 0 1-4.545 4.556 4.543 4.543 0 0 1-4.546-4.556 4.542 4.542 0 0 1 4.546-4.555 4.542 4.542 0 0 1 4.545 4.555ZM186.441 527.225a4.542 4.542 0 0 1-4.545 4.556 4.542 4.542 0 0 1-4.545-4.556 4.542 4.542 0 0 1 4.545-4.555 4.542 4.542 0 0 1 4.545 4.555ZM197.901 531.781a4.543 4.543 0 0 1-4.546-4.556 4.542 4.542 0 0 1 4.546-4.555v9.111Z" fill="#FFB641"/><path d="M202.46 354.54H81.297c-3.123 0-5.655 2.538-5.655 5.669s2.532 5.669 5.656 5.669H202.46c3.124 0 5.656-2.538 5.656-5.669s-2.532-5.669-5.656-5.669Z" fill="#766691"/><path d="M96.132 364.23a5.668 5.668 0 0 0 4.012 1.647H81.312a5.731 5.731 0 0 1-4.012-1.647 5.694 5.694 0 0 1-1.644-4.021 5.658 5.658 0 0 1 5.656-5.654h18.832a5.658 5.658 0 0 0-5.656 5.654c0 1.573.622 2.982 1.644 4.021ZM106.036 540.877s-10.526 5.891-10.852 17.956H71.956v-.876c0-6.069 3.538-11.975 10.126-17.095h23.94l.014.015ZM138.578 221.061s-3.05 16.902-15.057 30.138c-10.689 11.783-61.159 54.238-26.604 99.32H81.416s-23.214-13.341-15.22-48.955c7.255-32.528 57.295-51.596 72.396-80.503h-.014Z" fill="#1F5277" style="mix-blend-mode:multiply" opacity=".36"/><path d="M145.195 221.061h-6.618v-8.266a3.309 3.309 0 0 1 3.302-3.309 3.308 3.308 0 0 1 3.301 3.309v8.266h.015Z" fill="#1F5277"/><path d="M326.984 354.274c-13.872 8.146 1.791 91.157 5.285 97.256 2.369 4.126 7.462 4.764 10.141 3.71 9.076-3.532 17.707-25.583 18.728-29.471 1.274-4.867-3.035-17.11-10.319-12.287-1.969 1.306-3.271 1.647-3.271 1.647s3.02-35.525.947-47.693-12.214-18.638-21.511-13.162Z" fill="#DDD7E7"/><path d="M327.606 432.728c1.895 9.883 3.746 17.14 4.678 18.802 2.369 4.125 7.462 4.748 10.142 3.71 9.09-3.532 17.721-25.583 18.728-29.471.533-2.033.104-5.357-1.14-8.177-.163.104-.326.178-.489.253-4.249 2.255-8.187 5.06-12.584 7.004-2.25 1.009-4.648 1.766-7.106 2.062-2.043.238-4.367-.504-6.337-.029-2.664.638-4.767 3.22-5.907 5.846h.015Z" fill="#DDD7E7" style="mix-blend-mode:multiply" opacity=".36"/><path d="M214.941 568.835H394.79c4.723-6.084 4.279-30.391 3.731-38.241-.489-6.945-4.59-15.893-10.112-19.618-3.805-2.626-38.152-22.407-47.612-28.328-11.045-6.915-2.384-76.318-6.722-95.639-3.449-15.344-4.974-22.719-19.72-28.061-21.037-7.627-49.019.312-69.346 7.82-17.647 6.53 4.368 79.865 4.693 85.994.77 15.166-5.403 20.196-10.23 29.218-.222.401-.444.817-.651 1.232-5.685 11.397-5.596 39.695-2.961 48.703 2.354 8.072-2.724 14.438-9.579 17.54-11.118 5.001-19.039 18.208-11.34 19.38Z" fill="#DDD7E7"/><path d="M248.992 463.015c.37.268.755.535 1.17.802 5.803 3.71 13.102 4.971 19.794 3.368 13.191-3.116 23.036-16.308 36.583-16.798 10.156-.356 18.876 6.574 27.7 11.649.355.208.725.401 1.08.594-1.539-23.995 1.806-62.118-1.229-75.651-3.449-15.344-4.974-22.719-19.72-28.061-21.037-7.628-49.018.311-69.346 7.82-17.647 6.529 4.368 79.865 4.694 85.994.207 4.051-.074 7.39-.711 10.254l-.015.029Z" fill="#DDD7E7" style="mix-blend-mode:multiply" opacity=".36"/><path d="M234.009 358.161c-7.713 6.04 1.363 85.341 4.175 90.831 2.236 4.378 24.31-31.919 24.31-31.919s-1.14-34.828-3.198-46.996c-2.073-12.168-17.233-18.223-25.272-11.916h-.015Z" fill="#DDD7E7"/><path d="M334.194 294.708c.725-10.283-4.619-26.28-27.404-31.162-20.801-4.467-41.587 7.286-42.845 49.251-.37 12.005 5.211 31.089 5.211 31.089s-26.427 7.731-35.147 14.275c19.75-6.9 25.613 12.643 39.633 39.057 14.02 26.414 29.121 27.542 33.622 25.865 4.5-1.692 44.71-57.843 34.836-67.875-5.241-5.327-21.571-5.772-23.925-10.031-6.085-10.996 13.324-12.154 16.019-50.469Z" fill="#fff"/><path d="M273.005 362.301c4.649 5.135 9.298 9.364 9.86 16.561.356 4.526-14.331-4.674-15.041-5.238-5.286-4.185 9.179 16.041 24.206 20.819 9.578 3.057 23.036 2.122 29.757-10.951 6.722-13.059-5.3 3.071-13.857 3.472-8.542.401-2.635.208 5.907-6.737 8.572-6.945 11.207-14.913 12.229-20.033 1.021-5.09-4.071 8.993-12.629 12.064-8.572 3.072-5.699-1.216 1.836-11.841 3.213-4.526 4.59-9.349 5.078-13.385-1.036-.535-1.791-1.143-2.191-1.84-1.599-2.894-1.436-5.09-.281-7.479-5.937.4-21.867 1.053-26.456-3.043-5.715-5.06-15.279-19.424-15.279-19.424s1.11 15.729 10.615 26.77c-.4-.148-6.855-2.76-10.6-7.301.296.594 5.122 10.165 7.906 11.797-.637-.208-10.808-3.695-12.999-5.891.355.505 6.1 8.488 15.723 12.643 0 0-2.695 2.656-21.645-2.641-18.965-5.313.755 3.843 7.876 11.708l-.015-.03Z" fill="#E4EFF4" style="mix-blend-mode:multiply" opacity=".63"/><path d="M301.682 343.678c-11.473-1.885-22.089-20.731-20.801-33.923 1.14-11.575 10.394-24.826 23.57-22.941 13.176 1.884 23.51 4.199 27.196 6.529 5.108 3.235-7.18 54.074-29.965 50.35v-.015Z" fill="#F7A38F"/><path d="M285.989 295.955s32.66-9.408 46.665 4.526c0 0 2.665-12.91-10.837-18.46-12.584-5.179-31.446 4.229-35.828 13.934ZM238.17 449.007c2.235 4.378 13.502 10.343 17.825 7.939 2.206-1.231 19.809-16.219 21.422-19.736 8.35-2.433 4.93-32.246-2.324-27.363-7.254 4.867-12.614 7.256-12.614 7.256s-27.107 26.429-24.309 31.919v-.015Z" fill="#DDD7E7"/><path d="M345.667 505.248c7.936 3.487 16.286 7.435 18.447 15.997-7.136-8.562-18.461-12.94-29.535-17.14-19.617-7.449-40.196-14.987-65.26-11.07 10.511-4.674 20.445-3.843 29.624-2.715 5.019.623 10.053 1.261 15.457 1.053 4.027-.163 11.044-3.012 13.294-.742 2.65 2.686 3.761 6.441 7.003 8.815 3.287 2.389 7.136 4.125 10.97 5.817v-.015Z" fill="#DDD7E7" style="mix-blend-mode:multiply" opacity=".36"/><path d="M214.94 568.834h179.85c4.723-6.084 4.278-30.376 3.745-38.241-.325-4.57-2.22-10.031-5.078-14.275 4.353 17.718-4.678 37.914-25.642 20.27 4.62 8.444-3.76 14.217-13.25 15.478-50.573 6.767-116.751 5.698-114.989-48.999.163-4.957.207-14.439.444-22.067l-.533.98c-.222.401-.444.816-.651 1.232-5.686 11.396-5.597 39.695-2.961 48.702 2.354 8.073-2.725 14.439-9.579 17.54-11.119 5.001-19.039 18.208-11.341 19.38h-.015Z" fill="#DDD7E7" style="mix-blend-mode:multiply" opacity=".36"/><path d="M275.093 409.832c-2.088 2.478-1.644 19.409-.474 24.648.666 2.982 5.256 3.709 6.647-3.117 1.984-9.734-3.893-24.232-6.173-21.531Z" fill="#4689AA"/><path d="m375.455 398.954-3.642-5.594s-18.935 1.899-29.047 13.518c0 0-11.281-20.077-30.838-24.559l-6.899 8.191 34.584 29.634 35.828-21.19h.014Z" fill="#E4EFF4"/><path d="m311.927 382.319-2.635 6.544-3.094.253 5.729-6.797Z" fill="#E4EFF4" style="mix-blend-mode:multiply" opacity=".36"/><path d="M339.405 413.704s-13.324-21.22-34.051-28.09l-17.129 27.794 28.499 29.559 7.995 1.692s18.639-12.45 30.809-11.56l23.036-35.659s-23.006 3.057-34.021 17.348l-5.108-1.084h-.03Z" fill="#766591"/><path d="M371.354 408.57s-9.504 1.262-11.459 1.618c-1.747.326-2.146 3.799-.799 3.799l7.461-.253s-5.699.564-8.142.668c-2.443.104-3.524 4.051-1.037 4.437 2.488.401 3.998.356 3.998.356s-1.51.089-3.302 0c-1.791-.104-3.434 3.725-.858 3.962.636.06 1.273.089 1.273.089s-1.525 3.176.592 3.295c2.117.118 3.39.252 4.486-.253 1.095-.504 2.087-1.988 1.895-2.997 0 0 3.775-2.3 2.887-3.695 0 0 4.101-2.79 3.005-4.986 0 0 3.761-3.295 2.976-5.58-.799-2.3-1.643-2.522-1.643-2.522l-1.333 2.062Z" fill="#F7A38F"/><path d="M305.68 408.896c-1.54-1.053-2.65-1.781-2.65-1.781-.208.164.903.846 2.65 1.781Z" fill="#F68B64"/><path d="M274.619 434.479s11.474-11.263 13.339-13.103c.252-.238.889-.015 1.259-.163 1.021-.416 1.747-.253 3.834.682 1.851.816 7.195 3.309 10.29 4.541 1.998.801 2.946-1.929 1.643-2.879-1.762-1.291-8.276-4.867-9.534-5.564 1.48.697 9.475 4.57 13.842 6.737 2.369 1.172 4.841-1.232 2.043-3.502-1.643-1.321-6.173-4.393-9.134-6.396 3.73 2.003 10.245 5.149 13.428 6.885 1.051.579 4.767-2.196 1.747-4.481-3.332-2.508-12.511-7.702-14.746-8.963 1.984 1.053 9.431 5.001 13.561 6.885 2.754 1.276 4.397-2.27 1.866-4.14-3.361-2.478-11.459-7.42-15.738-10.966-2.398-2.003-2.354-5.609-2.354-5.609.03 0-6.958.697-9.401 3.012l-15.427 12.257s-5.655 6.322-.518 24.782v-.015Zm24.843-21.472s1.11.727 2.65 1.78c-1.747-.935-2.858-1.617-2.65-1.78Z" fill="#F7A38F"/><path d="M274.619 434.479s11.474-11.263 13.339-13.103c0 0-3.997-2.611-4.382-6.722 0 0-1.377 3.547 1.022 6.693l-10.171 8.696s-3.228-13.92.666-20.301l-.03.045c-.577.742-5.285 7.375-.459 24.707l.015-.015Z" fill="#F7A38F" style="mix-blend-mode:multiply" opacity=".36"/><path d="M262.479 417.073s-16.744-4.155-22.503 19.573c0 0 3.553-10.625 8.35-11.975 0 0-2.976 4.496-2.014 11.055 0 0 1.777-14.453 16.167-18.653Z" fill="#DDD7E7" style="mix-blend-mode:multiply" opacity=".36"/><path d="M456.334 476.593s-8.35-45.037-6.721-54.653c1.628-9.616 14.849-15.359 21.2-10.387 6.085 4.778-5.966 105.373-5.966 105.373l-26.56-7.122 18.047-33.226v.015Z" fill="#A18AC8"/><path d="M555.571 568.835H413.578c-3.731-4.808-3.376-23.995-2.947-30.198.385-5.476 3.628-12.539 7.98-15.492 3.006-2.078 30.35-17.348 37.59-22.378 15.042-10.447-.326-47.219 5.3-66.614 3.464-11.916 3.923-17.94 15.575-22.155 16.611-6.025 38.7 4.704 54.748 10.625 13.931 5.149-3.45 49.697-3.701 54.549-.607 11.976 4.264 15.938 8.083 23.061.178.326.341.638.518.979 4.486 8.993 4.427 31.341 2.34 38.449-1.851 6.366 2.146 11.411 7.565 13.845 8.779 3.947 15.042 14.379 8.942 15.299v.03Z" fill="#6295B2"/><path d="M555.571 568.835H413.578c-3.731-4.808-3.376-23.995-2.947-30.198.385-5.476 3.628-12.539 7.98-15.492 3.006-2.078 30.35-17.348 37.59-22.378 15.042-10.447-.326-47.219 5.3-66.614 3.464-11.916 3.923-17.94 15.575-22.155 16.611-6.025 38.7 4.704 54.748 10.625 13.931 5.149-3.45 49.697-3.701 54.549-.607 11.976 4.264 15.938 8.083 23.061.178.326.341.638.518.979 4.486 8.993 4.427 31.341 2.34 38.449-1.851 6.366 2.146 11.411 7.565 13.845 8.779 3.947 15.042 14.379 8.942 15.299v.03Z" fill="#A18AC8"/><path d="M555.571 568.834H413.563c-3.731-4.808-3.376-23.98-2.946-30.198.177-2.597 1.007-5.579 2.309-8.295-.769 12.777 7.27 25.39 21.956 13.029-3.642 6.663 2.961 11.218 10.452 12.228 39.929 5.342 94.366-17.244 83.914-40.289-3.346-7.39-20.593-1.306-30.957 7.123-9.845 8.013-23.717 21.161-33.459 11.085-2.946-3.057 10.541-13.86 6.396-12.955-15.264 3.309-22.518 8.191-35.473 16.961 3.154-6.203 8.676-10.877 14.48-14.705 5.803-3.829 12.554-10.625 13.146-25.509 2.665 12.435 19.632 13.192 32.186-2.493 13.472-16.828 22.385-37.929 20.298-59.402-3.702 10.922-16.093 27.735-28.47 29.575-6.514.964-20.52-16.205-24.058-21.784.933 11.871.592 24.885-.355 36.757.34-4.244-.311-9.379-1.17-14.394-1.258-11.352.192-24.367-1.155-27.438-1.821-4.126-12.243-20.063-3.953-25.776 14.539-10.032 59.057 4.348 75.12 10.284 13.931 5.149-3.449 49.711-3.701 54.549-.622 11.975 4.264 15.937 8.069 23.06.192.326.355.653.518.979 4.486 8.993 4.426 31.341 2.339 38.449-1.851 6.381 2.147 11.411 7.565 13.86 8.794 3.947 15.042 14.379 8.957 15.299Z" fill="#A18AC8" style="mix-blend-mode:multiply" opacity=".36"/><path d="M457.815 499.431c-.77 4.541-2.251 8.889-5.226 12.346-2.117 2.449-4.901 4.334-6.648 7.079-1.08 1.706-1.717 3.695-2.931 5.342-1.791 2.448-4.678 3.843-7.536 4.897a53.538 53.538 0 0 1-10.156 2.656c-2.309.356-5.108.371-6.455-1.528-1.332-1.885-.488-5.654.637-7.554.029-.059.074-.118.118-.178 5.848-3.591 29.876-17.065 36.583-21.709a10.865 10.865 0 0 0 1.614-1.351Z" fill="#A18AC8" style="mix-blend-mode:multiply" opacity=".36"/><path d="M485.263 510.932s-3.435 4.911-5.063 6.01c-2.162 1.469-7.699 2.552-9.387 4.54-1.391 1.633-3.449 6.663-5.907 10.447-.577.891 3.139 1.202 3.139 1.202s-.074.327-.711 1.529c-.177.341 4.19 1.602 5.567-1.247 0 0 2.369 1.855 4.101.119.829-.831 1.303-1.202 1.303-1.202s1.85 1.276 3.035 0c.592-.638 3.153-2.983 4.13-3.354.962-.371 3.687-1.083 5.241-2.582 1.555-1.499 1.836-3.072 2.458-3.739.621-.668 5.981-5.595 5.981-5.595l-13.872-6.114-.015-.014Z" fill="#F7A38F"/><path d="m467.142 533.012 7.24-9.942s-1.155 2.908-2.103 4.244c-.932 1.321-4.264 5.802-4.264 5.802l-.888-.104h.015ZM472.872 533.398l5.048-8.799-6.692 10.313s.8-.045 1.644-1.514ZM478.29 532.315l4.723-6.381-6.041 7.583 1.318-1.202Z" fill="#F7A38F" style="mix-blend-mode:multiply" opacity=".36"/><path d="M431.062 512.148c1.629-1.632 3.997-4.6 3.997-4.6l10.408 6.055s-2.679 3.902-3.183 4.748c-.607 1.039-1.258 4.452-3.42 6.352-1.377 1.216-6.588 3.813-7.328 3.813-.74 0-.918-2.166 1.125-3.235 1.125-.593 1.392-1.395 1.392-1.395s-2.162.935-3.183 1.633c-1.022.712-5.093 5.386-6.825 5.787-1.733.401-1.614-.727-1.614-.727s-.874 1.395-2.606 1.246c-1.732-.148-.266-2.092-.266-2.092s-1.377.445-1.703-.43c-.311-.876 1.895-4.022 1.895-4.022s-1.554-.237-.947-1.187c.607-.935 3.168-5.401 4.426-6.499 1.259-1.113 6.589-4.215 7.832-5.447Z" fill="#F7A38F"/><path d="m422.431 530.579 5.73-7.761s-.548-.104-.859.385c-.311.49-4.871 7.376-4.871 7.376ZM419.559 529.748l6.247-8.429s-1.406 1.068-1.539 1.231c-.133.164-4.708 7.212-4.708 7.212v-.014ZM419.751 525.281l4.235-5.698s-2.265 2.122-2.414 2.448c-.148.327-1.821 3.25-1.821 3.25Z" fill="#F7A38F" style="mix-blend-mode:multiply" opacity=".36"/><path d="M513.807 475.481s5.137-45.053 6.765-54.668c1.629-9.616 13.606-9.928 19.957-4.957 6.085 4.779-1.732 64.907-4.012 69.211-4.264 8.013-39.573 35.495-39.573 35.495s-7.136-11.189-14.879-5.891l31.742-39.176v-.014Z" fill="#A18AC8"/><path d="M464.64 357.715c1.673-19.988 13.354-24.396 23.54-24.826 16.774-.712 30.572 11.011 29.535 34.932-.414 9.482-4.944 32.305-4.944 32.305s20.86 10.551 27.759 15.729c-15.59-5.446-20.224 5.521-31.298 26.385-11.074 20.849-21.259 20.196-25.05 20.285-9.075.193-36.79-41.075-29.002-48.999 4.145-4.215 17.159-8.948 18.891-12.361 1.155-2.301-12.259-9.869-9.431-43.435v-.015Z" fill="#fff"/><path d="M495.967 427.742c-.711 3.576 11.755-3.68 12.362-4.14 4.56-3.294-8.75 12.673-21.067 16.442-7.847 2.419-18.388 1.677-22.459-8.651-4.087-10.314 3.893 2.433 10.615 2.745 6.706.326 2.058.163-4.042-5.313-6.1-5.49-7.447-11.782-7.773-15.818-.325-4.022 2.369 7.108 8.839 9.527 6.484 2.418 4.619-.965-.326-9.349-1.85-3.146-2.561-6.47-2.724-9.408 2.31-.698 4.116-1.484 4.678-2.612.859-1.707-6.336-6.336-8.912-22.378 7.935 4.155 24.798 16.798 28.188 14.068 4.856-3.888 13.443-14.765 13.887-15.314-.133.742-2.62 12.658-10.896 21.101.34-.104 5.626-2.166 9.016-5.698-.533.875-5.019 7.998-7.299 9.245.518-.163 8.883-2.909 10.823-4.645-.326.401-5.611 6.707-13.606 9.987 0 0 1.88 2.092 17.351-2.092 15.457-4.185-.962 3.042-7.313 9.245-4.16 4.036-8.217 7.39-9.342 13.058Z" fill="#E4EFF4" style="mix-blend-mode:multiply" opacity=".63"/><path d="M480.037 397.96c11.074 1.84 22.296-8.503 25.064-20.078 2.428-10.15 3.154-23.505-9.489-25.865-12.629-2.344-22.785-3.472-26.856-2.596-5.641 1.201-10.704 44.874 11.281 48.539Z" fill="#F7A38F"/><path d="M506.523 364.259s-24.014-16.872-41.128-8.503c0 0 1.392-12.435 15.456-11.826 14.139.608 25.672 12.242 25.672 20.344v-.015ZM453.951 476.4c-.445 2.212-21.616 34.012-21.616 34.012l11.859 7.939s14.657-17.703 17.248-25.523c1.169-3.547-8.409-37.47-8.409-37.47s1.983 15.775.918 21.042Z" fill="#A18AC8"/><path d="M457.711 500.04s2.858-8.206 2.28-14.157c-.577-5.951-5.137-8.711-5.137-8.711s5.596 2.33 5.952 4.304c0 0-.237-3.28-2.147-4.719 0 0 3.671 2.968 4.352 4.837.681 1.855 0 14.869 0 14.869s-.977-2.552-1.48-1.394c-.503 1.157-3.834 4.971-3.834 4.971h.014Z" fill="#A18AC8" style="mix-blend-mode:multiply" opacity=".36"/><path d="M595.47 568.834H38.274v11.085H595.47v-11.085Z" fill="#A18AC8"/></svg><svg fill="none" viewBox="0 0 16 16" id="phone" xmlns="http://www.w3.org/2000/svg"><g clip-path="url(#da)"><path d="M13.864 11.136c-.972-.827-1.959-1.327-2.92-.502l-.573.499c-.42.362-1.2 2.054-4.215-1.395-3.016-3.445-1.221-3.981-.801-4.34l.576-.5c.956-.827.595-1.868-.094-2.94l-.416-.65C4.73.238 3.976-.464 3.018.362L2.5.812C2.077 1.118.894 2.115.607 4.008c-.346 2.272.744 4.873 3.24 7.727 2.494 2.855 4.935 4.29 7.248 4.264 1.922-.02 3.083-1.045 3.446-1.418l.519-.45c.955-.826.362-1.666-.611-2.495l-.585-.5Z" fill="#5D3F91"/></g><defs><clipPath id="da"><path fill="#fff" d="M0 0h16v16H0z"/></clipPath></defs></svg><svg fill="none" viewBox="0 0 50 50" id="play" xmlns="http://www.w3.org/2000/svg"><circle cx="25" cy="25" r="25" fill="#5D3F91"/><path d="M37 23.268c1.333.77 1.333 2.694 0 3.464l-16.5 9.526c-1.333.77-3-.192-3-1.732V15.474c0-1.54 1.667-2.502 3-1.732L37 23.268Z" fill="#fff"/></svg><svg fill="none" viewBox="0 0 36 36" id="tg" xmlns="http://www.w3.org/2000/svg"><path fill-rule="evenodd" clip-rule="evenodd" d="M0 18c0 9.941 8.059 18 18 18s18-8.059 18-18S27.941 0 18 0 0 8.059 0 18Zm14.7 8.25.306-4.588 8.347-7.533c.366-.325-.08-.483-.567-.188l-10.3 6.498-4.45-1.389c-.96-.294-.968-.954.216-1.429l17.338-6.685c.792-.36 1.556.19 1.254 1.402l-2.953 13.914c-.206.99-.803 1.226-1.631.769l-4.498-3.323L15.6 25.8a3.839 3.839 0 0 0-.02.02c-.242.235-.442.43-.88.43Z" fill="#5D3F91"/></svg><svg fill="none" viewBox="0 0 36 36" id="wa" xmlns="http://www.w3.org/2000/svg"><path fill-rule="evenodd" clip-rule="evenodd" d="M0 18c0 9.941 8.059 18 18 18s18-8.059 18-18S27.941 0 18 0 0 8.059 0 18Zm29.297-.689c-.003 5.9-4.802 10.701-10.704 10.703h-.004c-1.791 0-3.552-.45-5.115-1.302L7.8 28.2l1.518-5.546a10.684 10.684 0 0 1-1.428-5.351C7.892 11.4 12.694 6.6 18.593 6.6a10.634 10.634 0 0 1 7.572 3.14 10.639 10.639 0 0 1 3.132 7.571Z" fill="#5D3F91"/><path fill-rule="evenodd" clip-rule="evenodd" d="m10.37 25.657 3.367-.883.325.193a8.883 8.883 0 0 0 4.528 1.24h.003c4.904 0 8.894-3.991 8.896-8.897a8.843 8.843 0 0 0-2.603-6.293 8.836 8.836 0 0 0-6.29-2.61c-4.906 0-8.897 3.991-8.9 8.896 0 1.681.47 3.318 1.36 4.735l.213.336-.9 3.283Zm13.25-6.042c.186.09.312.152.365.241.067.112.067.647-.155 1.272-.223.625-1.292 1.195-1.806 1.272-.46.069-1.044.097-1.684-.106a15.368 15.368 0 0 1-1.525-.564c-2.507-1.082-4.201-3.512-4.522-3.972a3.408 3.408 0 0 0-.046-.066l-.003-.003c-.141-.189-1.09-1.454-1.09-2.764 0-1.231.606-1.877.884-2.174.02-.02.037-.04.053-.057a.982.982 0 0 1 .713-.334c.178 0 .357.001.512.01h.06c.156-.001.35-.002.542.458l.296.717c.23.56.484 1.18.529 1.269.067.134.111.29.022.469a8.459 8.459 0 0 0-.038.076 1.519 1.519 0 0 1-.23.37l-.137.164c-.092.112-.184.224-.264.304-.134.134-.273.278-.117.546.156.268.693 1.144 1.488 1.853a6.908 6.908 0 0 0 1.974 1.248c.073.031.133.057.177.08.267.133.423.11.579-.068.156-.178.669-.78.847-1.048.178-.268.356-.224.601-.134.246.09 1.56.736 1.828.87l.146.071Z" fill="#5D3F91"/></svg></svg>